<svg width="1193" height="285" viewBox="0 0 1193 285" fill="none"
    xmlns="http://www.w3.org/2000/svg">
    <g clip-path="url(#clip0_4_2)">
        <path d="M388.12 40.03C388.12 48.63 385.57 55.4833 380.47 60.59C374.683 66.6633 367.143 69.7 357.85 69.7C353.578 69.7753 349.334 68.999 345.366 67.4164C341.398 65.8338 337.784 63.4765 334.737 60.4823C331.689 57.488 329.269 53.9167 327.616 49.9768C325.964 46.0369 325.113 41.8074 325.113 37.535C325.113 33.2626 325.964 29.0331 327.616 25.0932C329.269 21.1533 331.689 17.582 334.737 14.5877C337.784 11.5935 341.398 9.23624 345.366 7.65362C349.334 6.071 353.578 5.29467 357.85 5.36999C362.196 5.35621 366.497 6.23434 370.49 7.95001C374.194 9.45802 377.493 11.8146 380.12 14.83L374.71 20.25C370.63 15.3767 365.01 12.94 357.85 12.94C354.732 12.9031 351.639 13.489 348.75 14.6636C345.862 15.8382 343.237 17.5776 341.03 19.78C336.303 24.34 333.94 30.26 333.94 37.54C333.94 44.82 336.303 50.74 341.03 55.3C345.601 59.6904 351.692 62.1422 358.03 62.1422C364.368 62.1422 370.459 59.6904 375.03 55.3C378.03 52.3 379.73 48.16 380.19 42.82H357.83V35.43H387.67C387.956 36.947 388.106 38.4864 388.12 40.03V40.03Z" fill="#333333"/>
        <path d="M435.42 14.32H407.42V33.84H432.7V41.24H407.42V60.76H435.42V68.32H399.42V6.75H435.42V14.32Z" fill="#333333"/>
        <path d="M468.78 68.32H460.86V14.32H443.67V6.75H485.98V14.32H468.78V68.32Z" fill="#333333"/>
        <path d="M516.59 68.32V6.75H524.54V68.32H516.59Z" fill="#333333"/>
        <path d="M559.6 68.32H551.68V14.32H534.48V6.75H576.8V14.32H559.6V68.32Z" fill="#333333"/>
        <path d="M656.89 60.37C650.894 66.3361 642.779 69.6853 634.32 69.6853C625.861 69.6853 617.746 66.3361 611.75 60.37C605.925 54.1955 602.681 46.0283 602.681 37.54C602.681 29.0517 605.925 20.8845 611.75 14.71C614.708 11.7427 618.222 9.3883 622.092 7.78186C625.962 6.17542 630.11 5.34851 634.3 5.34851C638.49 5.34851 642.638 6.17542 646.508 7.78186C650.378 9.3883 653.892 11.7427 656.85 14.71C662.688 20.8698 665.942 29.0334 665.942 37.52C665.942 46.0066 662.688 54.1702 656.85 60.33L656.89 60.37ZM617.59 55.21C622.028 59.6415 628.043 62.1306 634.315 62.1306C640.587 62.1306 646.602 59.6415 651.04 55.21C655.6 50.5967 657.883 44.7067 657.89 37.54C657.897 30.3733 655.613 24.48 651.04 19.86C646.602 15.4285 640.587 12.9394 634.315 12.9394C628.043 12.9394 622.028 15.4285 617.59 19.86C613.037 24.48 610.757 30.3733 610.75 37.54C610.743 44.7067 613.023 50.5967 617.59 55.21V55.21Z" fill="#333333"/>
        <path d="M677.07 68.32V6.75H686.7L716.62 54.65H716.96L716.62 42.78V6.78H724.54V68.35H716.28L684.97 18.13H684.63L684.97 30V68.35L677.07 68.32Z" fill="#333333"/>
        <path d="M600.72 158.13C589.08 158.014 577.868 162.516 569.54 170.65C565.389 174.893 562.131 179.925 559.957 185.448C557.783 190.971 556.737 196.873 556.882 202.807C557.026 208.741 558.358 214.586 560.798 219.996C563.238 225.407 566.738 230.274 571.09 234.31C579.044 241.26 589.188 245.19 599.748 245.413C610.308 245.636 620.61 242.138 628.85 235.53C633.823 231.436 637.814 226.279 640.53 220.438C643.245 214.597 644.616 208.221 644.54 201.78C644.628 196.009 643.554 190.279 641.381 184.932C639.208 179.585 635.981 174.731 631.892 170.657C627.802 166.584 622.935 163.376 617.58 161.224C612.224 159.071 606.491 158.019 600.72 158.13V158.13ZM600.72 228.23C587.5 228.23 576.09 217.32 576.09 201.78C576.09 186.07 587.5 175.33 600.72 175.33C613.94 175.33 625.36 186.07 625.36 201.78C625.36 217.32 613.95 228.23 600.72 228.23ZM505.15 158.13C496.472 158.084 487.968 160.568 480.68 165.28C469.02 172.87 461.33 185.97 461.33 201.78C461.263 207.586 462.367 213.346 464.577 218.715C466.786 224.084 470.056 228.953 474.19 233.03C481.836 240.299 491.792 244.652 502.321 245.326C512.849 246 523.279 242.954 531.79 236.72C537.199 232.657 541.572 227.376 544.556 221.304C547.539 215.233 549.048 208.544 548.96 201.78C549.026 193.9 546.975 186.146 543.02 179.33C535.42 166.33 521.28 158.13 505.15 158.13V158.13ZM505.15 228.23C491.92 228.23 480.51 217.32 480.51 201.78C480.51 186.07 491.92 175.33 505.15 175.33C518.38 175.33 529.78 186.07 529.78 201.78C529.78 217.32 518.37 228.23 505.15 228.23V228.23ZM391.45 171.57V190.08H435.76C434.44 200.5 430.97 208.08 425.68 213.39C419.23 219.84 409.14 226.95 391.45 226.95C364.17 226.95 342.85 204.95 342.85 177.68C342.85 150.41 364.17 128.42 391.45 128.42C403.89 128.253 415.894 133.004 424.85 141.64L437.91 128.57C426.84 117.99 412.12 109.89 391.45 109.89C379.133 109.901 367.045 113.22 356.45 119.5C336.39 131.36 322.7 153 322.7 177.67C322.7 203.12 337.27 225.35 358.37 236.94C368.508 242.526 379.895 245.457 391.47 245.46C411.64 245.46 426.86 238.85 438.76 226.46C450.99 214.22 454.76 197.03 454.76 183.14C454.804 179.26 454.469 175.385 453.76 171.57H391.43H391.45ZM856.45 185.95C852.81 176.2 841.73 158.17 819.08 158.17C809.713 158.119 800.619 161.33 793.36 167.25C783.98 174.93 777.92 187.03 777.92 201.82C777.92 226.29 796.43 245.47 821.23 245.47C828.413 245.495 835.49 243.738 841.827 240.356C848.164 236.973 853.563 232.072 857.54 226.09L842.67 216.17C837.67 223.44 830.93 228.23 821.17 228.23C811.41 228.23 804.47 223.77 800.01 215.01L858.37 190.87L856.45 185.95ZM796.93 200.5C796.43 183.64 809.99 175.04 819.74 175.04C827.35 175.04 833.8 178.84 835.95 184.3L815.54 192.72L796.93 200.5ZM749.48 242.82H768.66V114.49H749.48V242.82ZM718.07 167.93H717.41C713.11 162.8 704.84 158.17 694.41 158.17C684.256 158.313 674.519 162.235 667.1 169.17C662.177 173.635 658.325 179.153 655.831 185.314C653.336 191.474 652.265 198.118 652.696 204.751C653.126 211.383 655.048 217.833 658.318 223.619C661.587 229.405 666.121 234.379 671.58 238.17C678.273 242.865 686.235 245.414 694.41 245.48C704.82 245.48 713.09 240.85 717.41 235.56H718.07V241.84C718.07 258.54 709.14 267.47 694.76 267.47C683.02 267.47 675.76 259.04 672.76 251.93L656.06 258.87C660.85 270.44 673.58 284.66 694.75 284.66C717.23 284.66 736.24 271.44 736.24 239.2V160.78H718.04L718.07 167.93ZM696.07 228.27C682.84 228.27 671.77 217.2 671.77 201.99C671.77 186.61 682.84 175.37 696.07 175.37C709.13 175.37 719.38 186.61 719.38 201.99C719.36 217.16 709.11 228.23 696.05 228.23L696.07 228.27ZM946.27 114.53H900.39V242.78H919.54V194.18H946.28C952.353 194.207 958.365 192.971 963.935 190.553C969.506 188.134 974.513 184.585 978.64 180.13C984.868 173.05 988.325 163.956 988.371 154.527C988.417 145.097 985.049 135.97 978.89 128.83C974.76 124.284 969.719 120.658 964.096 118.187C958.472 115.717 952.392 114.457 946.25 114.49L946.27 114.53ZM946.77 176.36H919.54V132.36H946.78C949.698 132.331 952.593 132.877 955.3 133.967C958.007 135.057 960.473 136.669 962.557 138.712C964.64 140.755 966.301 143.188 967.445 145.873C968.588 148.558 969.191 151.442 969.22 154.36C969.19 164.28 961.06 176.32 946.75 176.32L946.77 176.36ZM1065.11 157.94C1051.24 157.94 1036.88 164.05 1030.94 177.58L1047.94 184.68C1051.57 177.58 1058.34 175.27 1065.44 175.27C1075.34 175.27 1085.44 181.21 1085.57 191.77V193.09C1079.42 189.801 1072.55 188.083 1065.57 188.09C1057.79 188.023 1050.12 189.911 1043.26 193.58C1034.66 198.37 1028.6 206.25 1028.6 216.98C1028.57 221.235 1029.57 225.436 1031.51 229.222C1033.45 233.009 1036.28 236.271 1039.75 238.73C1045.8 243.014 1053.05 245.278 1060.46 245.2C1073.33 245.2 1080.46 239.42 1084.88 232.66H1085.54V242.57H1104.03V193.38C1104.03 179.86 1098.03 169.89 1088.58 164.02C1082.11 160 1074.01 157.9 1065.09 157.9L1065.11 157.94ZM1062.8 228.25C1056.53 228.25 1047.8 225.11 1047.8 217.36C1047.8 207.45 1058.69 203.66 1068.1 203.66C1076.52 203.66 1080.48 205.47 1085.59 207.95C1084.88 213.514 1082.18 218.632 1077.98 222.357C1073.79 226.082 1068.39 228.161 1062.78 228.21L1062.8 228.25ZM1171.4 160.74L1162.31 183.74L1149.45 216.34H1148.79L1126.01 160.71H1105.38L1121.86 198.21L1139.54 238.44L1120.06 281.69H1140.06L1177.41 195.86L1192.71 160.7L1171.4 160.74ZM998.92 242.82H1018.07V114.49H998.92V242.82Z" fill="#333333"/>
        <path d="M177.54 91.78L25.04 2.30002C21.4992 0.217927 17.3117 -0.476547 13.2883 0.351042C9.26489 1.17863 5.6916 3.46941 3.25998 6.78L132.42 136.69L177.54 91.78Z" fill="url(#paint0_linear_4_2)"/>
        <path d="M3.35157e-05 256.01C-0.0207089 259.398 1.0061 262.709 2.93998 265.49L132.38 136.69L3.22 6.78C1.10843 9.62425 -0.0216277 13.0777 3.35157e-05 16.62V256.01Z" fill="url(#paint1_linear_4_2)"/>
        <path d="M176.73 181.3L229 150.64C231.495 149.172 233.563 147.079 235 144.566C236.437 142.054 237.193 139.209 237.193 136.315C237.193 133.421 236.437 130.576 235 128.064C233.563 125.551 231.495 123.458 229 121.99L177.54 91.78L132.42 136.69L176.73 181.3Z" fill="url(#paint2_linear_4_2)"/>
        <path d="M2.93991 265.49C5.33111 268.927 8.93178 271.335 13.0217 272.233C17.1116 273.13 21.3894 272.45 25 270.33L176.73 181.33L132.38 136.72L2.93991 265.49Z" fill="url(#paint3_linear_4_2)"/>
    </g>
    <defs>
        <linearGradient id="paint0_linear_4_2" x1="-203.41" y1="-180.18" x2="111.14" y2="78.2501" gradientUnits="userSpaceOnUse">
            <stop stop-color="#32A071"/>
            <stop offset="0.07" stop-color="#2DA771"/>
            <stop offset="0.48" stop-color="#15CF74"/>
            <stop offset="0.8" stop-color="#06E775"/>
            <stop offset="1" stop-color="#00F076"/>
        </linearGradient>
        <linearGradient id="paint1_linear_4_2" x1="222.6" y1="134.84" x2="-12.27" y2="136.22" gradientUnits="userSpaceOnUse">
            <stop stop-color="#00A0FF"/>
            <stop offset="0.01" stop-color="#00A1FF"/>
            <stop offset="0.26" stop-color="#00BEFF"/>
            <stop offset="0.51" stop-color="#00D2FF"/>
            <stop offset="0.76" stop-color="#00DFFF"/>
            <stop offset="1" stop-color="#00E3FF"/>
        </linearGradient>
        <linearGradient id="paint2_linear_4_2" x1="255.5" y1="142.69" x2="43.4897" y2="126.06" gradientUnits="userSpaceOnUse">
            <stop stop-color="#FFE000"/>
            <stop offset="0.41" stop-color="#FFBD00"/>
            <stop offset="0.78" stop-color="#FFA500"/>
            <stop offset="1" stop-color="#FF9C00"/>
        </linearGradient>
        <linearGradient id="paint3_linear_4_2" x1="227.89" y1="110.31" x2="-180.19" y2="381.21" gradientUnits="userSpaceOnUse">
            <stop stop-color="#FF3A44"/>
            <stop offset="1" stop-color="#C31162"/>
        </linearGradient>
        <clipPath id="clip0_4_2">
            <rect width="1192.68" height="284.61" fill="white"/>
        </clipPath>
    </defs>
</svg>
