<?xml version="1.0" encoding="utf-8"?>
<!-- Generator: Adobe Illustrator 26.0.3, SVG Export Plug-In . SVG Version: 6.00 Build 0)  -->
<svg version="1.1" id="Слой_1"
    xmlns="http://www.w3.org/2000/svg"
    xmlns:xlink="http://www.w3.org/1999/xlink" x="0px" y="0px" viewBox="0 0 1000 618" style="enable-background:new 0 0 1000 618;" xml:space="preserve">
    <style type="text/css">
	.st0{fill:#3A3A3A;}
	.st1{fill:#2B2B2B;}
	.st2{fill:#4C4C4C;}
    </style>
    <g transform="matrix(8.5837610323 0 0 8.5837610323 -2898.73609385976 -2239.50304064073)">
        <path class="st0" d="M380.2,268.6h31.5v56.6h-31.5V268.6z"/>
        <path class="st1" d="M382.2,296.9c0-11.5,5.4-21.7,13.7-28.3c-6.1-4.8-13.8-7.7-22.2-7.7c-19.9,0-36,16.1-36,36s16.1,36,36,36
		c8.4,0,16.1-2.9,22.2-7.7C387.6,318.7,382.2,308.4,382.2,296.9z"/>
        <path class="st2" d="M454.2,296.9c0,19.9-16.1,36-36,36c-8.4,0-16.1-2.9-22.2-7.7c8.4-6.6,13.7-16.8,13.7-28.3s-5.4-21.7-13.7-28.3
		c6.1-4.8,13.8-7.7,22.2-7.7C438.1,260.9,454.2,277.1,454.2,296.9z"/>
    </g>
</svg>
