<?xml version="1.0" encoding="utf-8"?>
<!-- Generator: Adobe Illustrator 26.0.3, SVG Export Plug-In . SVG Version: 6.00 Build 0)  -->
<svg version="1.1" id="Capa_1"
    xmlns="http://www.w3.org/2000/svg"
    xmlns:xlink="http://www.w3.org/1999/xlink" x="0px" y="0px" viewBox="0 0 47.8 47.8" style="enable-background:new 0 0 47.8 47.8;" xml:space="preserve">
    <style type="text/css">
	.st0{fill:#333333;}
	.st1{fill:#6A6A6A;}
    </style>
    <g>
        <g>
            <polygon class="st0" points="19.2,16.8 16.7,31.1 20.6,31.1 23,16.8 		"/>
        </g>
    </g>
    <g>
        <g>
            <path class="st0" d="M13.5,16.8l-3.8,9.7l-0.4-1.5c-0.8-1.8-2.9-4.3-5.4-5.9l3.5,11.9l4.1,0l6.1-14.2L13.5,16.8z"/>
        </g>
    </g>
    <g>
        <g>
            <path class="st1" d="M7.8,17.8c-0.2-0.9-0.9-1.1-1.7-1.2h-6L0,17c4.7,1.1,7.8,3.9,9.1,7.2L7.8,17.8z"/>
        </g>
    </g>
    <g>
        <g>
            <path class="st0" d="M30.9,19.5c1.3,0,2.2,0.3,2.9,0.5l0.4,0.2l0.5-3.1c-0.8-0.3-2-0.6-3.5-0.6c-3.8,0-6.6,1.9-6.6,4.7
			c0,2,1.9,3.2,3.4,3.9c1.5,0.7,2,1.1,2,1.8c0,1-1.2,1.4-2.3,1.4c-1.6,0-2.4-0.2-3.7-0.7l-0.5-0.2L23,30.5c0.9,0.4,2.6,0.7,4.3,0.8
			c4.1,0,6.7-1.9,6.8-4.9c0-1.6-1-2.9-3.3-3.9c-1.4-0.7-2.2-1.1-2.2-1.8C28.7,20.2,29.4,19.5,30.9,19.5z"/>
        </g>
    </g>
    <g>
        <g>
            <path class="st0" d="M44.7,16.8h-3c-0.9,0-1.6,0.3-2,1.2l-5.8,13.1H38c0,0,0.7-1.8,0.8-2.1c0.4,0,4.4,0,5,0
			c0.1,0.5,0.5,2.1,0.5,2.1h3.6L44.7,16.8z M39.9,26c0.3-0.8,1.5-4,1.5-4c0,0,0.3-0.8,0.5-1.4l0.3,1.2c0,0,0.7,3.4,0.9,4.1H39.9z"/>
        </g>
    </g>
</svg>
