<svg width="1193" height="285" fill="none" xmlns="http://www.w3.org/2000/svg"><g clip-path="url(#a)"><path d="M388.12 40.03c0 8.6-2.55 15.453-7.65 20.56-5.787 6.073-13.327 9.11-22.62 9.11a32.168 32.168 0 0 1-23.113-55.112A32.168 32.168 0 0 1 357.85 5.37a31.76 31.76 0 0 1 12.64 2.58 25.55 25.55 0 0 1 9.63 6.88l-5.41 5.42c-4.08-4.873-9.7-7.31-16.86-7.31a23.422 23.422 0 0 0-16.82 6.84c-4.727 4.56-7.09 10.48-7.09 17.76 0 7.28 2.363 13.2 7.09 17.76a24.54 24.54 0 0 0 34 0c3-3 4.7-7.14 5.16-12.48h-22.36v-7.39h29.84c.286 1.517.436 3.056.45 4.6Zm47.3-25.71h-28v19.52h25.28v7.4h-25.28v19.52h28v7.56h-36V6.75h36v7.57Zm33.36 54h-7.92v-54h-17.19V6.75h42.31v7.57h-17.2v54Zm47.81 0V6.75h7.95v61.57h-7.95Zm43.01 0h-7.92v-54h-17.2V6.75h42.32v7.57h-17.2v54Zm97.29-7.95a31.999 31.999 0 0 1-45.14 0 33.269 33.269 0 0 1 0-45.66 31.837 31.837 0 0 1 45.1 0 33.16 33.16 0 0 1 0 45.62l.04.04Zm-39.3-5.16a23.67 23.67 0 0 0 33.45 0c4.56-4.613 6.843-10.503 6.85-17.67.007-7.167-2.277-13.06-6.85-17.68a23.67 23.67 0 0 0-33.45 0c-4.553 4.62-6.833 10.513-6.84 17.68-.007 7.167 2.273 13.057 6.84 17.67Zm59.48 13.11V6.75h9.63l29.92 47.9h.34l-.34-11.87v-36h7.92v61.57h-8.26l-31.31-50.22h-.34l.34 11.87v38.35l-7.9-.03Zm-76.35 89.81a43.997 43.997 0 0 0-31.18 12.52 44.432 44.432 0 0 0-12.658 32.157 44.432 44.432 0 0 0 14.208 31.503 44.996 44.996 0 0 0 57.76 1.22 43.069 43.069 0 0 0 15.69-33.75 43.008 43.008 0 0 0-12.648-31.123 43.011 43.011 0 0 0-31.172-12.527Zm0 70.1c-13.22 0-24.63-10.91-24.63-26.45 0-15.71 11.41-26.45 24.63-26.45 13.22 0 24.64 10.74 24.64 26.45 0 15.54-11.41 26.45-24.64 26.45Zm-95.57-70.1a44.633 44.633 0 0 0-24.47 7.15c-11.66 7.59-19.35 20.69-19.35 36.5a43.182 43.182 0 0 0 12.86 31.25 45 45 0 0 0 57.6 3.69 42.997 42.997 0 0 0 17.17-34.94 43.998 43.998 0 0 0-5.94-22.45c-7.6-13-21.74-21.2-37.87-21.2Zm0 70.1c-13.23 0-24.64-10.91-24.64-26.45 0-15.71 11.41-26.45 24.64-26.45s24.63 10.74 24.63 26.45c0 15.54-11.41 26.45-24.63 26.45Zm-113.7-56.66v18.51h44.31c-1.32 10.42-4.79 18-10.08 23.31-6.45 6.45-16.54 13.56-34.23 13.56-27.28 0-48.6-22-48.6-49.27 0-27.27 21.32-49.26 48.6-49.26a47.206 47.206 0 0 1 33.4 13.22l13.06-13.07c-11.07-10.58-25.79-18.68-46.46-18.68a68.763 68.763 0 0 0-35 9.61c-20.06 11.86-33.75 33.5-33.75 58.17 0 25.45 14.57 47.68 35.67 59.27a68.627 68.627 0 0 0 33.1 8.52c20.17 0 35.39-6.61 47.29-19 12.23-12.24 16-29.43 16-43.32a59.622 59.622 0 0 0-1-11.57h-62.33.02Zm465 14.38c-3.64-9.75-14.72-27.78-37.37-27.78a40.35 40.35 0 0 0-25.72 9.08c-9.38 7.68-15.44 19.78-15.44 34.57 0 24.47 18.51 43.65 43.31 43.65a43.425 43.425 0 0 0 36.31-19.38l-14.87-9.92c-5 7.27-11.74 12.06-21.5 12.06s-16.7-4.46-21.16-13.22l58.36-24.14-1.92-4.92Zm-59.52 14.55c-.5-16.86 13.06-25.46 22.81-25.46 7.61 0 14.06 3.8 16.21 9.26l-20.41 8.42-18.61 7.78Zm-47.45 42.32h19.18V114.49h-19.18v128.33Zm-31.41-74.89h-.66c-4.3-5.13-12.57-9.76-23-9.76a40.836 40.836 0 0 0-27.31 11 44.17 44.17 0 0 0 4.48 69 40.32 40.32 0 0 0 22.83 7.31c10.41 0 18.68-4.63 23-9.92h.66v6.28c0 16.7-8.93 25.63-23.31 25.63-11.74 0-19-8.43-22-15.54l-16.7 6.94c4.79 11.57 17.52 25.79 38.69 25.79 22.48 0 41.49-13.22 41.49-45.46v-78.42h-18.2l.03 7.15Zm-22 60.34c-13.23 0-24.3-11.07-24.3-26.28 0-15.38 11.07-26.62 24.3-26.62 13.06 0 23.31 11.24 23.31 26.62-.02 15.17-10.27 26.24-23.33 26.24l.02.04Zm250.2-113.74h-45.88v128.25h19.15v-48.6h26.74a43.848 43.848 0 0 0 32.36-14.05 39.053 39.053 0 0 0 .25-51.3 43.789 43.789 0 0 0-32.64-14.34l.02.04Zm.5 61.83h-27.23v-44h27.24a22.219 22.219 0 0 1 22.44 22c-.03 9.92-8.16 21.96-22.47 21.96l.02.04Zm118.34-18.42c-13.87 0-28.23 6.11-34.17 19.64l17 7.1c3.63-7.1 10.4-9.41 17.5-9.41 9.9 0 20 5.94 20.13 16.5v1.32a42.318 42.318 0 0 0-20-5 46.453 46.453 0 0 0-22.31 5.49c-8.6 4.79-14.66 12.67-14.66 23.4a26.425 26.425 0 0 0 11.15 21.75 35.2 35.2 0 0 0 20.71 6.47c12.87 0 20-5.78 24.42-12.54h.66v9.91h18.49v-49.19c0-13.52-6-23.49-15.45-29.36-6.47-4.02-14.57-6.12-23.49-6.12l.02.04Zm-2.31 70.31c-6.27 0-15-3.14-15-10.89 0-9.91 10.89-13.7 20.3-13.7 8.42 0 12.38 1.81 17.49 4.29a23.172 23.172 0 0 1-7.61 14.407 23.18 23.18 0 0 1-15.2 5.853l.02.04Zm108.6-67.51-9.09 23-12.86 32.6h-.66l-22.78-55.63h-20.63l16.48 37.5 17.68 40.23-19.48 43.25h20l37.35-85.83 15.3-35.16-21.31.04Zm-172.48 82.08h19.15V114.49h-19.15v128.33Z" fill="#333"/><path d="M177.54 91.78 25.04 2.3A16.59 16.59 0 0 0 3.26 6.78l129.16 129.91 45.12-44.91Z" fill="url(#b)"/><path d="M0 256.01a16.428 16.428 0 0 0 2.94 9.48l129.44-128.8L3.22 6.78A16.34 16.34 0 0 0 0 16.62v239.39Z" fill="url(#c)"/><path d="M176.73 181.3 229 150.64a16.618 16.618 0 0 0 0-28.65l-51.46-30.21-45.12 44.91 44.31 44.61Z" fill="url(#d)"/><path d="M2.94 265.49a16.625 16.625 0 0 0 10.082 6.743c4.09.897 8.367.217 11.978-1.903l151.73-89-44.35-44.61L2.94 265.49Z" fill="url(#e)"/></g><defs><linearGradient id="b" x1="-203.41" y1="-180.18" x2="111.14" y2="78.25" gradientUnits="userSpaceOnUse"><stop stop-color="#32A071"/><stop offset=".07" stop-color="#2DA771"/><stop offset=".48" stop-color="#15CF74"/><stop offset=".8" stop-color="#06E775"/><stop offset="1" stop-color="#00F076"/></linearGradient><linearGradient id="c" x1="222.6" y1="134.84" x2="-12.27" y2="136.22" gradientUnits="userSpaceOnUse"><stop stop-color="#00A0FF"/><stop offset=".01" stop-color="#00A1FF"/><stop offset=".26" stop-color="#00BEFF"/><stop offset=".51" stop-color="#00D2FF"/><stop offset=".76" stop-color="#00DFFF"/><stop offset="1" stop-color="#00E3FF"/></linearGradient><linearGradient id="d" x1="255.5" y1="142.69" x2="43.49" y2="126.06" gradientUnits="userSpaceOnUse"><stop stop-color="#FFE000"/><stop offset=".41" stop-color="#FFBD00"/><stop offset=".78" stop-color="orange"/><stop offset="1" stop-color="#FF9C00"/></linearGradient><linearGradient id="e" x1="227.89" y1="110.31" x2="-180.19" y2="381.21" gradientUnits="userSpaceOnUse"><stop stop-color="#FF3A44"/><stop offset="1" stop-color="#C31162"/></linearGradient><clipPath id="a"><path fill="#fff" d="M0 0h1192.68v284.61H0z"/></clipPath></defs></svg>