<svg xmlns="http://www.w3.org/2000/svg" viewBox="0 0 1000 618" style="enable-background:new 0 0 1000 618" xml:space="preserve"><path d="M380.2 268.6h31.5v56.6h-31.5v-56.6z" style="fill:#3a3a3a" transform="translate(-2898.736 -2239.503) scale(8.58376)"/><path d="M382.2 296.9c0-11.5 5.4-21.7 13.7-28.3-6.1-4.8-13.8-7.7-22.2-7.7-19.9 0-36 16.1-36 36s16.1 36 36 36c8.4 0 16.1-2.9 22.2-7.7-8.3-6.5-13.7-16.8-13.7-28.3z" style="fill:#2b2b2b" transform="translate(-2898.736 -2239.503) scale(8.58376)"/><path d="M454.2 296.9c0 19.9-16.1 36-36 36-8.4 0-16.1-2.9-22.2-7.7 8.4-6.6 13.7-16.8 13.7-28.3s-5.4-21.7-13.7-28.3c6.1-4.8 13.8-7.7 22.2-7.7 19.9 0 36 16.2 36 36z" style="fill:#4c4c4c" transform="translate(-2898.736 -2239.503) scale(8.58376)"/></svg>