<svg xmlns="http://www.w3.org/2000/svg" viewBox="0 0 400 120" style="enable-background:new 0 0 400 120" xml:space="preserve"><path d="M32.6 0C35.7 0 45-.8 49 12.5c2.7 9 6.9 23.7 12.7 44.2h2.4C70.4 35.1 74.7 20.4 77 12.5 81-1 91 0 95 0h30.9v96H94.4V39.4h-2.1L74.8 96H51.1L33.6 39.4h-2.1V96H0V0h32.6zM171 0v56.6h2.5L194.8 10c4.1-9.3 13-10.1 13-10.1h30.4v96h-32.1V39.4h-2.5L182.7 86c-4.1 9.2-13.4 10.1-13.4 10.1h-30.4V0H171zm178.3 45.6c-4.5 12.7-18.5 21.8-34.1 21.8h-33.7V96H251V45.6h98.3z" style="fill-rule:evenodd;clip-rule:evenodd;fill:#333" transform="translate(31 13)"/><path d="M316.6 0h-67.3c1.6 21.4 20 39.7 39.1 39.7h63C355 21.9 342.5 0 316.6 0z" style="fill-rule:evenodd;clip-rule:evenodd;fill:#8b8b8b" transform="translate(31 13)"/></svg>