<svg height="512" viewBox="0 0 24 24" width="512" xmlns="http://www.w3.org/2000/svg" data-name="Layer 1"><path d="M18.5 21h-13A5.506 5.506 0 0 1 0 15.5v-7A5.506 5.506 0 0 1 5.5 3h13A5.506 5.506 0 0 1 24 8.5v7a5.506 5.506 0 0 1-5.5 5.5zM5.5 6A2.5 2.5 0 0 0 3 8.5v7A2.5 2.5 0 0 0 5.5 18h13a2.5 2.5 0 0 0 2.5-2.5v-7A2.5 2.5 0 0 0 18.5 6zm0 1A1.5 1.5 0 1 0 7 8.5 1.5 1.5 0 0 0 5.5 7zM17 8.5A1.5 1.5 0 1 0 18.5 7 1.5 1.5 0 0 0 17 8.5zM6.561 14.439a1.5 1.5 0 1 0 0 2.122 1.5 1.5 0 0 0 0-2.122zM17 15.5a1.5 1.5 0 1 0 1.5-1.5 1.5 1.5 0 0 0-1.5 1.5zM8.5 12a3.5 3.5 0 1 1 3.5 3.5A3.5 3.5 0 0 1 8.5 12z"/></svg>