<svg version="1.1" id="Capa_1" xmlns="http://www.w3.org/2000/svg" x="0" y="0" viewBox="0 0 47.8 47.8" style="enable-background:new 0 0 47.8 47.8" xml:space="preserve"><style>.st0{fill:#333}</style><path class="st0" d="m19.2 16.8-2.5 14.3h3.9L23 16.8zm-5.7 0-3.8 9.7-.4-1.5c-.8-1.8-2.9-4.3-5.4-5.9L7.4 31h4.1l6.1-14.2h-4.1z"/><path d="M7.8 17.8c-.2-.9-.9-1.1-1.7-1.2h-6L0 17c4.7 1.1 7.8 3.9 9.1 7.2l-1.3-6.4z" style="fill:#6a6a6a"/><path class="st0" d="M30.9 19.5c1.3 0 2.2.3 2.9.5l.4.2.5-3.1c-.8-.3-2-.6-3.5-.6-3.8 0-6.6 1.9-6.6 4.7 0 2 1.9 3.2 3.4 3.9 1.5.7 2 1.1 2 1.8 0 1-1.2 1.4-2.3 1.4-1.6 0-2.4-.2-3.7-.7l-.5-.2-.5 3.1c.9.4 2.6.7 4.3.8 4.1 0 6.7-1.9 6.8-4.9 0-1.6-1-2.9-3.3-3.9-1.4-.7-2.2-1.1-2.2-1.8.1-.5.8-1.2 2.3-1.2zm13.8-2.7h-3c-.9 0-1.6.3-2 1.2l-5.8 13.1H38s.7-1.8.8-2.1h5c.1.5.5 2.1.5 2.1h3.6l-3.2-14.3zM39.9 26l1.5-4s.3-.8.5-1.4l.3 1.2s.7 3.4.9 4.1h-3.2z"/></svg>